<svg xmlns="http://www.w3.org/2000/svg" xmlns:xlink="http://www.w3.org/1999/xlink" width="200"
    height="66" viewBox="0 0 200 66">
    <defs>
        <clipPath id="clip-path">
            <rect id="Rectangle_27295" data-name="Rectangle 27295" width="200" height="66"
                transform="translate(-11678.717 -859.308)" fill="#b8d57d" stroke="#707070"
                stroke-width="1" />
        </clipPath>
    </defs>
    <g id="Mask_Group_2258" data-name="Mask Group 2258" transform="translate(11678.717 859.308)"
        opacity="0.2" clip-path="url(#clip-path)">
        <g id="noun-service-2571905" transform="translate(-11713.835 -854.141)">
            <path id="Path_63628" data-name="Path 63628"
                d="M339.127,126.451H322.37A90.7,90.7,0,0,0,311.164,99.37l11.841-11.846L292.9,57.415,281.041,69.243a90.788,90.788,0,0,0-27.083-11.205V41.28h-42.59V58.038a90.815,90.815,0,0,0-27.084,11.205L172.441,57.4l-30.11,30.11,11.841,11.843a90.79,90.79,0,0,0-11.205,27.084H126.2ZM169.069,102.576l3.477-4.887L162.4,87.531l10.036-10.036L182.6,87.644l4.887-3.477A76.872,76.872,0,0,1,219.636,70.86l5.928-1.007V55.48h14.2V69.853l5.922,1a76.882,76.882,0,0,1,32.156,13.3l4.887,3.477,10.159-10.15,10.036,10.036-10.15,10.166,3.477,4.884c.818,1.148-30.1,19.13-62.354,19.161C201.706,121.76,168.173,103.834,169.069,102.576Z"
                transform="translate(-99.467 -41.28)" fill="#b8d57d" fill-rule="evenodd" />
            <g id="Group_174350" data-name="Group 174350" transform="translate(0 246.758)">
                <path id="Path_63629" data-name="Path 63629" d="M0,0" transform="translate(0 0)"
                    fill="#b8d57d" />
            </g>
            <g id="Group_174351" data-name="Group 174351" transform="translate(0 246.758)">
                <path id="Path_63630" data-name="Path 63630" d="M0,0" transform="translate(0 0)"
                    fill="#b8d57d" />
            </g>
            <g id="Group_174352" data-name="Group 174352" transform="translate(0 246.758)">
                <path id="Path_63631" data-name="Path 63631" d="M0,0" transform="translate(0 0)"
                    fill="#b8d57d" />
            </g>
            <g id="Group_174353" data-name="Group 174353" transform="translate(0 246.758)">
                <path id="Path_63632" data-name="Path 63632" d="M0,0" transform="translate(0 0)"
                    fill="#b8d57d" />
            </g>
            <g id="Group_174354" data-name="Group 174354" transform="translate(0 246.758)">
                <path id="Path_63633" data-name="Path 63633" d="M0,0" transform="translate(0 0)"
                    fill="#b8d57d" />
            </g>
            <g id="Group_174355" data-name="Group 174355" transform="translate(0 246.758)">
                <path id="Path_63634" data-name="Path 63634" d="M0,0" transform="translate(0 0)"
                    fill="#b8d57d" />
            </g>
            <g id="Group_174356" data-name="Group 174356" transform="translate(0.002 246.758)">
                <path id="Path_63635" data-name="Path 63635" d="M0,0" transform="translate(0 0)"
                    fill="#b8d57d" />
            </g>
            <g id="Group_174357" data-name="Group 174357" transform="translate(0.002 246.758)">
                <path id="Path_63636" data-name="Path 63636" d="M0,0" transform="translate(0 0)"
                    fill="#b8d57d" />
            </g>
            <g id="Group_174358" data-name="Group 174358" transform="translate(0.002 246.758)">
                <path id="Path_63637" data-name="Path 63637" d="M0,0" transform="translate(0 0)"
                    fill="#b8d57d" />
            </g>
            <g id="Group_174359" data-name="Group 174359" transform="translate(0.002 246.758)">
                <path id="Path_63638" data-name="Path 63638" d="M0,0" transform="translate(0 0)"
                    fill="#b8d57d" />
            </g>
            <g id="Group_174360" data-name="Group 174360" transform="translate(0.002 246.758)">
                <path id="Path_63639" data-name="Path 63639" d="M0,0" transform="translate(0 0)"
                    fill="#b8d57d" />
            </g>
            <g id="Group_174361" data-name="Group 174361" transform="translate(0.002 246.758)">
                <path id="Path_63640" data-name="Path 63640" d="M0,0" transform="translate(0 0)"
                    fill="#b8d57d" />
            </g>
            <g id="Group_174362" data-name="Group 174362" transform="translate(0.002 246.758)">
                <path id="Path_63641" data-name="Path 63641" d="M0,0" transform="translate(0 0)"
                    fill="#b8d57d" />
            </g>
            <g id="Group_174363" data-name="Group 174363" transform="translate(0 246.758)">
                <path id="Path_63642" data-name="Path 63642" d="M0,0" transform="translate(0 0)"
                    fill="#b8d57d" />
            </g>
            <g id="Group_174364" data-name="Group 174364" transform="translate(0 246.758)">
                <path id="Path_63643" data-name="Path 63643" d="M0,0" transform="translate(0 0)"
                    fill="#b8d57d" />
            </g>
            <g id="Group_174365" data-name="Group 174365" transform="translate(0 246.758)">
                <path id="Path_63644" data-name="Path 63644" d="M0,0" transform="translate(0 0)"
                    fill="#b8d57d" />
            </g>
            <g id="Group_174366" data-name="Group 174366" transform="translate(0 246.758)">
                <path id="Path_63645" data-name="Path 63645" d="M0,0" transform="translate(0 0)"
                    fill="#b8d57d" />
            </g>
            <g id="Group_174367" data-name="Group 174367" transform="translate(0 246.758)">
                <path id="Path_63646" data-name="Path 63646" d="M0,0" transform="translate(0 0)"
                    fill="#b8d57d" />
            </g>
            <g id="Group_174368" data-name="Group 174368" transform="translate(0 246.758)">
                <path id="Path_63647" data-name="Path 63647" d="M0,0" transform="translate(0 0)"
                    fill="#b8d57d" />
            </g>
            <g id="Group_174369" data-name="Group 174369" transform="translate(0.002 246.758)">
                <path id="Path_63648" data-name="Path 63648" d="M0,0" transform="translate(0 0)"
                    fill="#b8d57d" />
            </g>
            <g id="Group_174370" data-name="Group 174370" transform="translate(0.002 246.758)">
                <path id="Path_63649" data-name="Path 63649" d="M0,0" transform="translate(0 0)"
                    fill="#b8d57d" />
            </g>
            <g id="Group_174371" data-name="Group 174371" transform="translate(0.002 246.758)">
                <path id="Path_63650" data-name="Path 63650" d="M0,0" transform="translate(0 0)"
                    fill="#b8d57d" />
            </g>
            <g id="Group_174372" data-name="Group 174372" transform="translate(0.002 246.758)">
                <path id="Path_63651" data-name="Path 63651" d="M0,0" transform="translate(0 0)"
                    fill="#b8d57d" />
            </g>
            <g id="Group_174373" data-name="Group 174373" transform="translate(0.002 246.758)">
                <path id="Path_63652" data-name="Path 63652" d="M0,0" transform="translate(0 0)"
                    fill="#b8d57d" />
            </g>
            <g id="Group_174374" data-name="Group 174374" transform="translate(0.002 246.758)">
                <path id="Path_63653" data-name="Path 63653" d="M0,0" transform="translate(0 0)"
                    fill="#b8d57d" />
            </g>
            <g id="Group_174375" data-name="Group 174375" transform="translate(0.002 246.758)">
                <path id="Path_63654" data-name="Path 63654" d="M0,0" transform="translate(0 0)"
                    fill="#b8d57d" />
            </g>
            <g id="Group_174376" data-name="Group 174376" transform="translate(0.004 246.758)">
                <path id="Path_63655" data-name="Path 63655" d="M0,0" transform="translate(0 0)"
                    fill="#b8d57d" />
            </g>
        </g>
    </g>
</svg>