<svg xmlns="http://www.w3.org/2000/svg" width="63.321" height="63.321" viewBox="0 0 63.321 63.321">
    <g id="noun-target-5644581" transform="translate(-99.168 -29.168)" opacity="0.22">
        <path id="Path_63753" data-name="Path 63753"
            d="M293.931,220.248a3.682,3.682,0,1,0,3.682,3.682,3.682,3.682,0,0,0-3.682-3.682Zm-8.1,3.682a8.1,8.1,0,1,1,8.1,8.1A8.1,8.1,0,0,1,285.832,223.929Z"
            transform="translate(-163.103 -163.101)" fill="#85c44b" fill-rule="evenodd" />
        <path id="Path_63754" data-name="Path 63754"
            d="M171.6,80.248A21.353,21.353,0,1,0,192.954,101.6,21.353,21.353,0,0,0,171.6,80.248ZM145.83,101.6A25.771,25.771,0,1,1,171.6,127.372,25.771,25.771,0,0,1,145.83,101.6Z"
            transform="translate(-40.772 -40.772)" fill="#85c44b" fill-rule="evenodd" />
        <path id="Path_63755" data-name="Path 63755"
            d="M334.709,29.168a2.209,2.209,0,0,1,2.209,2.209V43.157a2.209,2.209,0,0,1-4.418,0V31.377A2.209,2.209,0,0,1,334.709,29.168Z"
            transform="translate(-203.88)" fill="#85c44b" fill-rule="evenodd" />
        <path id="Path_63756" data-name="Path 63756"
            d="M472.5,264.709a2.209,2.209,0,0,1,2.209-2.209H486.49a2.209,2.209,0,1,1,0,4.418H474.709A2.209,2.209,0,0,1,472.5,264.709Z"
            transform="translate(-326.209 -203.88)" fill="#85c44b" fill-rule="evenodd" />
        <path id="Path_63757" data-name="Path 63757"
            d="M334.709,402.5a2.209,2.209,0,0,1,2.209,2.209v11.781a2.209,2.209,0,0,1-4.418,0V404.709A2.209,2.209,0,0,1,334.709,402.5Z"
            transform="translate(-203.88 -326.209)" fill="#85c44b" fill-rule="evenodd" />
        <path id="Path_63758" data-name="Path 63758"
            d="M99.168,264.709a2.209,2.209,0,0,1,2.209-2.209h11.781a2.209,2.209,0,0,1,0,4.418H101.377A2.209,2.209,0,0,1,99.168,264.709Z"
            transform="translate(0 -203.88)" fill="#85c44b" fill-rule="evenodd" />
    </g>
</svg>