<svg xmlns="http://www.w3.org/2000/svg" xmlns:xlink="http://www.w3.org/1999/xlink" width="66"
    height="22" viewBox="0 0 66 22">
    <defs>
        <clipPath id="clip-path">
            <rect id="Rectangle_27291" data-name="Rectangle 27291" width="66" height="22"
                transform="translate(-11678.717 -859.641)" fill="#b8d57d" stroke="#707070"
                stroke-width="1" />
        </clipPath>
    </defs>
    <g id="Mask_Group_2257" data-name="Mask Group 2257" transform="translate(11678.717 859.641)"
        opacity="0.38" clip-path="url(#clip-path)">
        <g id="noun-service-2571905" transform="translate(-11690.306 -857.826)">
            <path id="Path_63600" data-name="Path 63600"
                d="M196.466,69.387h-5.53a29.931,29.931,0,0,0-3.7-8.937l3.907-3.909L181.21,46.6l-3.912,3.9a29.96,29.96,0,0,0-8.938-3.7V41.28H154.305v5.53a29.969,29.969,0,0,0-8.938,3.7L141.46,46.6l-9.936,9.936,3.907,3.908a29.961,29.961,0,0,0-3.7,8.938H126.2Zm-56.119-7.879,1.147-1.613-3.349-3.352,3.312-3.312,3.355,3.349,1.613-1.147a25.368,25.368,0,0,1,10.61-4.391l1.956-.332V45.966h4.685v4.743l1.954.331a25.371,25.371,0,0,1,10.612,4.389l1.613,1.147,3.352-3.349,3.312,3.312-3.349,3.355,1.147,1.612c.27.379-9.931,6.313-20.577,6.323C151.117,67.838,140.051,61.923,140.347,61.508Z"
                transform="translate(-117.378 -41.28)" fill="#b8d57d" fill-rule="evenodd" />
            <g id="Group_174321" data-name="Group 174321" transform="translate(0 81.43)">
                <path id="Path_63601" data-name="Path 63601" d="M0,0" transform="translate(0 0)"
                    fill="#b8d57d" />
            </g>
            <g id="Group_174322" data-name="Group 174322" transform="translate(0 81.43)">
                <path id="Path_63602" data-name="Path 63602" d="M0,0" transform="translate(0 0)"
                    fill="#b8d57d" />
            </g>
            <g id="Group_174323" data-name="Group 174323" transform="translate(0 81.43)">
                <path id="Path_63603" data-name="Path 63603" d="M0,0" transform="translate(0 0)"
                    fill="#b8d57d" />
            </g>
            <g id="Group_174324" data-name="Group 174324" transform="translate(0 81.43)">
                <path id="Path_63604" data-name="Path 63604" d="M0,0" transform="translate(0 0)"
                    fill="#b8d57d" />
            </g>
            <g id="Group_174325" data-name="Group 174325" transform="translate(0 81.43)">
                <path id="Path_63605" data-name="Path 63605" d="M0,0" transform="translate(0 0)"
                    fill="#b8d57d" />
            </g>
            <g id="Group_174326" data-name="Group 174326" transform="translate(0 81.43)">
                <path id="Path_63606" data-name="Path 63606" d="M0,0" transform="translate(0 0)"
                    fill="#b8d57d" />
            </g>
            <g id="Group_174327" data-name="Group 174327" transform="translate(0.001 81.43)">
                <path id="Path_63607" data-name="Path 63607" d="M0,0" transform="translate(0 0)"
                    fill="#b8d57d" />
            </g>
            <g id="Group_174328" data-name="Group 174328" transform="translate(0.001 81.43)">
                <path id="Path_63608" data-name="Path 63608" d="M0,0" transform="translate(0 0)"
                    fill="#b8d57d" />
            </g>
            <g id="Group_174329" data-name="Group 174329" transform="translate(0.001 81.43)">
                <path id="Path_63609" data-name="Path 63609" d="M0,0" transform="translate(0 0)"
                    fill="#b8d57d" />
            </g>
            <g id="Group_174330" data-name="Group 174330" transform="translate(0.001 81.43)">
                <path id="Path_63610" data-name="Path 63610" d="M0,0" transform="translate(0 0)"
                    fill="#b8d57d" />
            </g>
            <g id="Group_174331" data-name="Group 174331" transform="translate(0.001 81.43)">
                <path id="Path_63611" data-name="Path 63611" d="M0,0" transform="translate(0 0)"
                    fill="#b8d57d" />
            </g>
            <g id="Group_174332" data-name="Group 174332" transform="translate(0.001 81.43)">
                <path id="Path_63612" data-name="Path 63612" d="M0,0" transform="translate(0 0)"
                    fill="#b8d57d" />
            </g>
            <g id="Group_174333" data-name="Group 174333" transform="translate(0.001 81.43)">
                <path id="Path_63613" data-name="Path 63613" d="M0,0" transform="translate(0 0)"
                    fill="#b8d57d" />
            </g>
            <g id="Group_174334" data-name="Group 174334" transform="translate(0 81.43)">
                <path id="Path_63614" data-name="Path 63614" d="M0,0" transform="translate(0 0)"
                    fill="#b8d57d" />
            </g>
            <g id="Group_174335" data-name="Group 174335" transform="translate(0 81.43)">
                <path id="Path_63615" data-name="Path 63615" d="M0,0" transform="translate(0 0)"
                    fill="#b8d57d" />
            </g>
            <g id="Group_174336" data-name="Group 174336" transform="translate(0 81.43)">
                <path id="Path_63616" data-name="Path 63616" d="M0,0" transform="translate(0 0)"
                    fill="#b8d57d" />
            </g>
            <g id="Group_174337" data-name="Group 174337" transform="translate(0 81.43)">
                <path id="Path_63617" data-name="Path 63617" d="M0,0" transform="translate(0 0)"
                    fill="#b8d57d" />
            </g>
            <g id="Group_174338" data-name="Group 174338" transform="translate(0 81.43)">
                <path id="Path_63618" data-name="Path 63618" d="M0,0" transform="translate(0 0)"
                    fill="#b8d57d" />
            </g>
            <g id="Group_174339" data-name="Group 174339" transform="translate(0 81.43)">
                <path id="Path_63619" data-name="Path 63619" d="M0,0" transform="translate(0 0)"
                    fill="#b8d57d" />
            </g>
            <g id="Group_174340" data-name="Group 174340" transform="translate(0.001 81.43)">
                <path id="Path_63620" data-name="Path 63620" d="M0,0" transform="translate(0 0)"
                    fill="#b8d57d" />
            </g>
            <g id="Group_174341" data-name="Group 174341" transform="translate(0.001 81.43)">
                <path id="Path_63621" data-name="Path 63621" d="M0,0" transform="translate(0 0)"
                    fill="#b8d57d" />
            </g>
            <g id="Group_174342" data-name="Group 174342" transform="translate(0.001 81.43)">
                <path id="Path_63622" data-name="Path 63622" d="M0,0" transform="translate(0 0)"
                    fill="#b8d57d" />
            </g>
            <g id="Group_174343" data-name="Group 174343" transform="translate(0.001 81.43)">
                <path id="Path_63623" data-name="Path 63623" d="M0,0" transform="translate(0 0)"
                    fill="#b8d57d" />
            </g>
            <g id="Group_174344" data-name="Group 174344" transform="translate(0.001 81.43)">
                <path id="Path_63624" data-name="Path 63624" d="M0,0" transform="translate(0 0)"
                    fill="#b8d57d" />
            </g>
            <g id="Group_174345" data-name="Group 174345" transform="translate(0.001 81.43)">
                <path id="Path_63625" data-name="Path 63625" d="M0,0" transform="translate(0 0)"
                    fill="#b8d57d" />
            </g>
            <g id="Group_174346" data-name="Group 174346" transform="translate(0.001 81.43)">
                <path id="Path_63626" data-name="Path 63626" d="M0,0" transform="translate(0 0)"
                    fill="#b8d57d" />
            </g>
            <g id="Group_174347" data-name="Group 174347" transform="translate(0.001 81.43)">
                <path id="Path_63627" data-name="Path 63627" d="M0,0" transform="translate(0 0)"
                    fill="#b8d57d" />
            </g>
        </g>
    </g>
</svg>