<svg xmlns="http://www.w3.org/2000/svg" width="33.169" height="67.758" viewBox="0 0 33.169 67.758">
    <g id="noun-first-3085362" transform="translate(-115.434 -19.763)" opacity="0.22">
        <path id="Path_63752" data-name="Path 63752"
            d="M251.485,39.566a4.147,4.147,0,0,0-2.354.729,4.143,4.143,0,0,0-3.856-2.631h-.087a4.158,4.158,0,0,0-2.281.685,4.136,4.136,0,0,0-3.834-2.587h-.087a4.186,4.186,0,0,0-1.953.489v-12.3a4.184,4.184,0,0,0-8.367,0V50.629h-2a4.176,4.176,0,0,0-4.038,3.119,1.1,1.1,0,0,0-.146.532V70.242a3.611,3.611,0,0,0,3.607,3.607h2.617v2.34h-2.332a1.092,1.092,0,0,0-1.093,1.093v9.147a1.092,1.092,0,0,0,1.093,1.093H251.47a1.092,1.092,0,0,0,1.093-1.093V77.275a1.092,1.092,0,0,0-1.093-1.093H249.43v-2.34h2.617a3.611,3.611,0,0,0,3.607-3.607V43.742a4.165,4.165,0,0,0-4.169-4.176Zm-2,4.176a2,2,0,1,1,3.994,0V54.805a2,2,0,1,1-3.994,0ZM243.235,41.8a1.953,1.953,0,0,1,1.953-1.953h.087a1.953,1.953,0,0,1,1.953,1.953V54.856a1.953,1.953,0,0,1-1.953,1.953h-.087a1.953,1.953,0,0,1-1.953-1.953Zm-4.242-3.856h.087a1.953,1.953,0,0,1,1.953,1.953V51.124a4.108,4.108,0,0,0-1.953-.489h-2.041V39.9a1.953,1.953,0,0,1,1.953-1.953Zm-8.134-14a2,2,0,1,1,3.994,0V50.629h-3.994Zm19.532,61.388H227.478V78.367h22.907v6.967Zm1.669-13.68h-4.8v4.526H230.9V71.655h-4.8a1.423,1.423,0,0,1-1.421-1.421V54.811a2,2,0,0,1,2-2h12.4a1.953,1.953,0,0,1,1.953,1.953v.087a1.953,1.953,0,0,1-1.953,1.953h-9.307a1.093,1.093,0,0,0,0,2.186,8.766,8.766,0,0,1,8.753,8.753,1.093,1.093,0,0,0,2.186,0,10.922,10.922,0,0,0-4.4-8.753h2.777a4.139,4.139,0,0,0,3.061-1.355,4.127,4.127,0,0,0,3.061,1.355h.087a4.141,4.141,0,0,0,3.1-1.4,4.16,4.16,0,0,0,5.109.889V70.24a1.443,1.443,0,0,1-1.436,1.415Z"
            transform="translate(-107.051)" fill="#85c44b" />
    </g>
</svg>