<svg xmlns="http://www.w3.org/2000/svg" xmlns:xlink="http://www.w3.org/1999/xlink" width="15.5"
    height="44" viewBox="0 0 15.5 44">
    <defs>
        <clipPath id="clip-path">
            <rect id="Rectangle_27298" data-name="Rectangle 27298" width="44" height="14"
                transform="translate(-11679.47 -859.209)" fill="#b8d57d" stroke="#707070"
                stroke-width="1" />
        </clipPath>
    </defs>
    <g id="Mask_Group_2262" data-name="Mask Group 2262"
        transform="translate(-843.709 11679.47) rotate(90)" opacity="0.38"
        clip-path="url(#clip-path)">
        <g id="noun-service-2571905" transform="translate(-11686.343 -858.156)">
            <path id="Path_63657" data-name="Path 63657"
                d="M171.7,59.48h-3.581a19.381,19.381,0,0,0-2.394-5.787l2.53-2.531-6.434-6.434-2.533,2.527a19.4,19.4,0,0,0-5.787-2.394V41.28h-9.1v3.581a19.406,19.406,0,0,0-5.787,2.394l-2.531-2.53-6.434,6.434,2.53,2.531a19.4,19.4,0,0,0-2.394,5.787H126.2Zm-36.34-5.1.743-1.044-2.169-2.171,2.145-2.145,2.172,2.169,1.044-.743a16.427,16.427,0,0,1,6.87-2.844l1.267-.215V44.314h3.034v3.071l1.265.214a16.429,16.429,0,0,1,6.871,2.842l1.044.743,2.171-2.169,2.145,2.145-2.169,2.172.743,1.044c.175.245-6.431,4.088-13.324,4.094C142.335,58.478,135.169,54.647,135.361,54.378Z"
                transform="translate(-120.488 -41.28)" fill="#b8d57d" fill-rule="evenodd" />
            <g id="Group_174378" data-name="Group 174378" transform="translate(0 52.729)">
                <path id="Path_63658" data-name="Path 63658" d="M0,0" fill="#b8d57d" />
            </g>
            <g id="Group_174379" data-name="Group 174379" transform="translate(0 52.729)">
                <path id="Path_63659" data-name="Path 63659" d="M0,0" fill="#b8d57d" />
            </g>
            <g id="Group_174380" data-name="Group 174380" transform="translate(0 52.729)">
                <path id="Path_63660" data-name="Path 63660" d="M0,0" fill="#b8d57d" />
            </g>
            <g id="Group_174381" data-name="Group 174381" transform="translate(0 52.729)">
                <path id="Path_63661" data-name="Path 63661" d="M0,0" fill="#b8d57d" />
            </g>
            <g id="Group_174382" data-name="Group 174382" transform="translate(0 52.729)">
                <path id="Path_63662" data-name="Path 63662" d="M0,0" fill="#b8d57d" />
            </g>
            <g id="Group_174383" data-name="Group 174383" transform="translate(0 52.729)">
                <path id="Path_63663" data-name="Path 63663" d="M0,0" fill="#b8d57d" />
            </g>
            <g id="Group_174384" data-name="Group 174384" transform="translate(0 52.729)">
                <path id="Path_63664" data-name="Path 63664" d="M0,0" fill="#b8d57d" />
            </g>
            <g id="Group_174385" data-name="Group 174385" transform="translate(0 52.729)">
                <path id="Path_63665" data-name="Path 63665" d="M0,0" fill="#b8d57d" />
            </g>
            <g id="Group_174386" data-name="Group 174386" transform="translate(0 52.729)">
                <path id="Path_63666" data-name="Path 63666" d="M0,0" fill="#b8d57d" />
            </g>
            <g id="Group_174387" data-name="Group 174387" transform="translate(0 52.729)">
                <path id="Path_63667" data-name="Path 63667" d="M0,0" fill="#b8d57d" />
            </g>
            <g id="Group_174388" data-name="Group 174388" transform="translate(0 52.729)">
                <path id="Path_63668" data-name="Path 63668" d="M0,0" fill="#b8d57d" />
            </g>
            <g id="Group_174389" data-name="Group 174389" transform="translate(0 52.729)">
                <path id="Path_63669" data-name="Path 63669" d="M0,0" fill="#b8d57d" />
            </g>
            <g id="Group_174390" data-name="Group 174390" transform="translate(0 52.729)">
                <path id="Path_63670" data-name="Path 63670" d="M0,0" fill="#b8d57d" />
            </g>
            <g id="Group_174391" data-name="Group 174391" transform="translate(0 52.729)">
                <path id="Path_63671" data-name="Path 63671" d="M0,0" fill="#b8d57d" />
            </g>
            <g id="Group_174392" data-name="Group 174392" transform="translate(0 52.729)">
                <path id="Path_63672" data-name="Path 63672" d="M0,0" fill="#b8d57d" />
            </g>
            <g id="Group_174393" data-name="Group 174393" transform="translate(0 52.729)">
                <path id="Path_63673" data-name="Path 63673" d="M0,0" fill="#b8d57d" />
            </g>
            <g id="Group_174394" data-name="Group 174394" transform="translate(0 52.729)">
                <path id="Path_63674" data-name="Path 63674" d="M0,0" fill="#b8d57d" />
            </g>
            <g id="Group_174395" data-name="Group 174395" transform="translate(0 52.729)">
                <path id="Path_63675" data-name="Path 63675" d="M0,0" fill="#b8d57d" />
            </g>
            <g id="Group_174396" data-name="Group 174396" transform="translate(0 52.729)">
                <path id="Path_63676" data-name="Path 63676" d="M0,0" fill="#b8d57d" />
            </g>
            <g id="Group_174397" data-name="Group 174397" transform="translate(0 52.729)">
                <path id="Path_63677" data-name="Path 63677" d="M0,0" fill="#b8d57d" />
            </g>
            <g id="Group_174398" data-name="Group 174398" transform="translate(0 52.729)">
                <path id="Path_63678" data-name="Path 63678" d="M0,0" fill="#b8d57d" />
            </g>
            <g id="Group_174399" data-name="Group 174399" transform="translate(0 52.729)">
                <path id="Path_63679" data-name="Path 63679" d="M0,0" fill="#b8d57d" />
            </g>
            <g id="Group_174400" data-name="Group 174400" transform="translate(0 52.729)">
                <path id="Path_63680" data-name="Path 63680" d="M0,0" fill="#b8d57d" />
            </g>
            <g id="Group_174401" data-name="Group 174401" transform="translate(0 52.729)">
                <path id="Path_63681" data-name="Path 63681" d="M0,0" fill="#b8d57d" />
            </g>
            <g id="Group_174402" data-name="Group 174402" transform="translate(0 52.729)">
                <path id="Path_63682" data-name="Path 63682" d="M0,0" fill="#b8d57d" />
            </g>
            <g id="Group_174403" data-name="Group 174403" transform="translate(0 52.729)">
                <path id="Path_63683" data-name="Path 63683" d="M0,0" fill="#b8d57d" />
            </g>
            <g id="Group_174404" data-name="Group 174404" transform="translate(0.001 52.729)">
                <path id="Path_63684" data-name="Path 63684" d="M0,0" fill="#b8d57d" />
            </g>
        </g>
    </g>
    <line id="Line_5" data-name="Line 5" y2="34" transform="translate(1.5 5)" fill="none"
        stroke="#85c44b" stroke-linecap="round" stroke-width="3" />
</svg>