<svg xmlns="http://www.w3.org/2000/svg" xmlns:xlink="http://www.w3.org/1999/xlink" width="140"
    height="438" viewBox="0 0 140 438">
    <defs>
        <clipPath id="clip-path">
            <rect id="Rectangle_27301" data-name="Rectangle 27301" width="438" height="140"
                transform="translate(-11679.191 -859.506)" fill="#fff" />
        </clipPath>
    </defs>
    <g id="Mask_Group_2264" data-name="Mask Group 2264"
        transform="translate(-719.506 11679.191) rotate(90)" opacity="0.15"
        clip-path="url(#clip-path)">
        <g id="noun-service-2571905" transform="translate(-11747.925 -848.777)">
            <path id="Path_63687" data-name="Path 63687"
                d="M579.632,222.654H543.946a193.139,193.139,0,0,0-23.862-57.671L545.3,139.757,481.183,75.64l-25.246,25.187a193.338,193.338,0,0,0-57.675-23.862V41.28h-90.7V76.965a193.394,193.394,0,0,0-57.675,23.862L224.672,75.612l-64.121,64.121,25.215,25.219A193.339,193.339,0,0,0,161.9,222.627H126.2ZM217.49,171.811l7.4-10.407-21.614-21.633L224.653,118.4,246.3,140.012l10.407-7.4a163.7,163.7,0,0,1,68.466-28.337l12.623-2.145V71.519H368.03v30.608l12.611,2.137a163.72,163.72,0,0,1,68.478,28.321l10.407,7.4,21.633-21.614,21.373,21.372L480.917,161.4l7.4,10.4c1.741,2.445-64.089,40.738-132.785,40.8C286.992,212.664,215.582,174.491,217.49,171.811Z"
                transform="translate(-69.273 -41.28)" fill="#fff" fill-rule="evenodd" />
            <g id="Group_174416" data-name="Group 174416" transform="translate(0 525.474)">
                <path id="Path_63688" data-name="Path 63688" d="M0,0" fill="#fff" />
            </g>
            <g id="Group_174417" data-name="Group 174417" transform="translate(0 525.474)">
                <path id="Path_63689" data-name="Path 63689" d="M0,0" fill="#fff" />
            </g>
            <g id="Group_174418" data-name="Group 174418" transform="translate(0 525.474)">
                <path id="Path_63690" data-name="Path 63690" d="M0,0" fill="#fff" />
            </g>
            <g id="Group_174419" data-name="Group 174419" transform="translate(0 525.474)">
                <path id="Path_63691" data-name="Path 63691" d="M0,0" fill="#fff" />
            </g>
            <g id="Group_174420" data-name="Group 174420" transform="translate(0 525.474)">
                <path id="Path_63692" data-name="Path 63692" d="M0,0" fill="#fff" />
            </g>
            <g id="Group_174421" data-name="Group 174421" transform="translate(0 525.474)">
                <path id="Path_63693" data-name="Path 63693" d="M0,0" fill="#fff" />
            </g>
            <g id="Group_174422" data-name="Group 174422" transform="translate(0.004 525.474)">
                <path id="Path_63694" data-name="Path 63694" d="M0,0" fill="#fff" />
            </g>
            <g id="Group_174423" data-name="Group 174423" transform="translate(0.004 525.474)">
                <path id="Path_63695" data-name="Path 63695" d="M0,0" fill="#fff" />
            </g>
            <g id="Group_174424" data-name="Group 174424" transform="translate(0.004 525.474)">
                <path id="Path_63696" data-name="Path 63696" d="M0,0" fill="#fff" />
            </g>
            <g id="Group_174425" data-name="Group 174425" transform="translate(0.004 525.474)">
                <path id="Path_63697" data-name="Path 63697" d="M0,0" fill="#fff" />
            </g>
            <g id="Group_174426" data-name="Group 174426" transform="translate(0.004 525.474)">
                <path id="Path_63698" data-name="Path 63698" d="M0,0" fill="#fff" />
            </g>
            <g id="Group_174427" data-name="Group 174427" transform="translate(0.004 525.474)">
                <path id="Path_63699" data-name="Path 63699" d="M0,0" fill="#fff" />
            </g>
            <g id="Group_174428" data-name="Group 174428" transform="translate(0.004 525.474)">
                <path id="Path_63700" data-name="Path 63700" d="M0,0" fill="#fff" />
            </g>
            <g id="Group_174429" data-name="Group 174429" transform="translate(0 525.474)">
                <path id="Path_63701" data-name="Path 63701" d="M0,0" fill="#fff" />
            </g>
            <g id="Group_174430" data-name="Group 174430" transform="translate(0 525.474)">
                <path id="Path_63702" data-name="Path 63702" d="M0,0" fill="#fff" />
            </g>
            <g id="Group_174431" data-name="Group 174431" transform="translate(0 525.474)">
                <path id="Path_63703" data-name="Path 63703" d="M0,0" fill="#fff" />
            </g>
            <g id="Group_174432" data-name="Group 174432" transform="translate(0 525.474)">
                <path id="Path_63704" data-name="Path 63704" d="M0,0" fill="#fff" />
            </g>
            <g id="Group_174433" data-name="Group 174433" transform="translate(0 525.474)">
                <path id="Path_63705" data-name="Path 63705" d="M0,0" fill="#fff" />
            </g>
            <g id="Group_174434" data-name="Group 174434" transform="translate(0 525.474)">
                <path id="Path_63706" data-name="Path 63706" d="M0,0" fill="#fff" />
            </g>
            <g id="Group_174435" data-name="Group 174435" transform="translate(0.004 525.474)">
                <path id="Path_63707" data-name="Path 63707" d="M0,0" fill="#fff" />
            </g>
            <g id="Group_174436" data-name="Group 174436" transform="translate(0.004 525.474)">
                <path id="Path_63708" data-name="Path 63708" d="M0,0" fill="#fff" />
            </g>
            <g id="Group_174437" data-name="Group 174437" transform="translate(0.004 525.474)">
                <path id="Path_63709" data-name="Path 63709" d="M0,0" fill="#fff" />
            </g>
            <g id="Group_174438" data-name="Group 174438" transform="translate(0.004 525.474)">
                <path id="Path_63710" data-name="Path 63710" d="M0,0" fill="#fff" />
            </g>
            <g id="Group_174439" data-name="Group 174439" transform="translate(0.004 525.474)">
                <path id="Path_63711" data-name="Path 63711" d="M0,0" fill="#fff" />
            </g>
            <g id="Group_174440" data-name="Group 174440" transform="translate(0.004 525.474)">
                <path id="Path_63712" data-name="Path 63712" d="M0,0" fill="#fff" />
            </g>
            <g id="Group_174441" data-name="Group 174441" transform="translate(0.004 525.474)">
                <path id="Path_63713" data-name="Path 63713" d="M0,0" fill="#fff" />
            </g>
            <g id="Group_174442" data-name="Group 174442" transform="translate(0.008 525.474)">
                <path id="Path_63714" data-name="Path 63714" d="M0,0" fill="#fff" />
            </g>
        </g>
    </g>
</svg>