<svg xmlns="http://www.w3.org/2000/svg" width="64.385" height="69.243" viewBox="0 0 64.385 69.243">
  <path id="noun-stopwatch-clock-5655506" d="M178.21,31.051a32.98,32.98,0,0,0-17.068,0,3.3,3.3,0,1,1-1.707-6.37,39.562,39.562,0,0,1,20.482,0,3.3,3.3,0,1,1-1.707,6.37Zm10.775.97a3.3,3.3,0,0,1,4.62-.632,39.574,39.574,0,0,1,10.337,11.728,3.3,3.3,0,0,1-5.711,3.3,32.979,32.979,0,0,0-8.615-9.773,3.3,3.3,0,0,1-.632-4.62Zm-19.309,7.8A23.081,23.081,0,1,0,192.756,62.9,23.08,23.08,0,0,0,169.676,39.819ZM140,62.9a29.676,29.676,0,1,1,29.676,29.676A29.676,29.676,0,0,1,140,62.9Z" transform="translate(-140 -23.333)" fill="#85c44b" fill-rule="evenodd"/>
  <circle id="Ellipse_751" data-name="Ellipse 751" cx="7" cy="7" r="7" transform="translate(23.385 32.428)" fill="#85c44b"/>
</svg>
