<svg xmlns="http://www.w3.org/2000/svg" width="28.216" height="51.548" viewBox="0 0 28.216 51.548">
  <g id="mission" transform="translate(-204.403 -13.999)">
    <path id="Path_63740" data-name="Path 63740" d="M227.572,218.337a14.12,14.12,0,0,0-5.914-24.58v2.387a11.8,11.8,0,1,1-6.349,0v-2.388a14.13,14.13,0,0,0-5.86,24.58l-3.69,7.922a1.1,1.1,0,0,0,.054,1.085,1.212,1.212,0,0,0,.977.543h6.077a1.187,1.187,0,0,0,1.085-.706l2.388-5.7a14.553,14.553,0,0,0,4.341,0l2.388,5.7a1.133,1.133,0,0,0,1.085.706h6.077a1.211,1.211,0,0,0,.977-.543,1.109,1.109,0,0,0,.054-1.085Zm-15.465,7.217h-3.473l2.713-5.914a15.433,15.433,0,0,0,2.713,1.248Zm12.806,0-1.953-4.666a15.429,15.429,0,0,0,2.713-1.248l2.713,5.914Z" transform="translate(0 -162.339)" fill="#fff"/>
    <path id="Path_63741" data-name="Path 63741" d="M267.451,256.79v-2.55a8.546,8.546,0,1,0,6.349,0v2.55a6.234,6.234,0,1,1-9.387,5.372,6.085,6.085,0,0,1,3.038-5.372Z" transform="translate(-52.087 -216.963)" fill="#fff"/>
    <path id="Path_63742" data-name="Path 63742" d="M322.675,48.13a2.976,2.976,0,0,0,2.984-2.984,2.935,2.935,0,0,0-1.791-2.713V27.89a8.605,8.605,0,0,0,1.953.217,16.85,16.85,0,0,0,3.853-.6,9.749,9.749,0,0,1,5.48-.271,1.074,1.074,0,0,0,.977-.217,1.159,1.159,0,0,0,.434-.922V16.821a1.222,1.222,0,0,0-.868-1.14,12.577,12.577,0,0,0-6.62.271,9.537,9.537,0,0,1-5.263.271V15.139a1.147,1.147,0,0,0-1.14-1.14,1.184,1.184,0,0,0-1.14,1.14V42.432a2.971,2.971,0,0,0,1.14,5.7Zm6.945-29.952a11.623,11.623,0,0,1,4.612-.488v7a14.263,14.263,0,0,0-5.209.543,9.537,9.537,0,0,1-5.263.271V18.557a12,12,0,0,0,5.86-.38Z" transform="translate(-104.164)" fill="#fff"/>
  </g>
</svg>
