<svg xmlns="http://www.w3.org/2000/svg" width="42" height="31.993" viewBox="0 0 42 31.993">
  <g id="vision" transform="translate(-70.001 -66.717)">
    <path id="Path_63750" data-name="Path 63750" d="M111.9,82.222a28.34,28.34,0,0,0-8.537-11.17,19.8,19.8,0,0,0-24.72,0,28.308,28.308,0,0,0-8.536,11.174,1.234,1.234,0,0,0,0,.993,28.343,28.343,0,0,0,8.536,11.166,19.805,19.805,0,0,0,24.721,0,28.322,28.322,0,0,0,8.536-11.17,1.234,1.234,0,0,0,0-.989ZM91,96.249c-7.54,0-14.557-5.168-18.42-13.536C76.445,74.346,83.462,69.178,91,69.178s14.557,5.168,18.42,13.536C105.559,91.081,98.542,96.249,91,96.249Z" fill="#fff"/>
    <path id="Path_63751" data-name="Path 63751" d="M233.653,154.22a9.445,9.445,0,1,0,6.667,2.766A9.433,9.433,0,0,0,233.653,154.22Zm0,16.407a6.973,6.973,0,0,1-3.011-13.261,7.793,7.793,0,0,0,9.328,9.241,6.981,6.981,0,0,1-6.317,4.02Zm6.973-6.842a5.332,5.332,0,0,1-7.162-7.1c.064,0,.128,0,.193,0a6.981,6.981,0,0,1,6.973,6.973c0,.044,0,.087,0,.131Z" transform="translate(-142.651 -80.94)" fill="#fff"/>
  </g>
</svg>
