<svg xmlns="http://www.w3.org/2000/svg" width="31.783" height="49.438" viewBox="0 0 31.783 49.438">
  <g id="_01" data-name="01" transform="translate(-192.494 -35.001)">
    <path id="Path_63727" data-name="Path 63727" d="M342.582,35.518a1.766,1.766,0,0,0-2.5,0l-7.063,7.063a1.766,1.766,0,0,0,1.249,3.014h1.766v5.3h1.494a3.532,3.532,0,0,1,3.205,2.048,3.533,3.533,0,0,1,3.715.819l2.18,2.18V45.6H348.4a1.766,1.766,0,0,0,1.249-3.014Z" transform="translate(-125.885)" fill="#fff"/>
    <path id="Path_63728" data-name="Path 63728" d="M208.227,97.057a1.765,1.765,0,0,1-1.608,1.036h-1.494a3.532,3.532,0,0,0-3.205,2.048,3.532,3.532,0,0,0-3.715.819l-2.621,2.621V98.094H194.26a1.765,1.765,0,0,1-1.329-2.928l6.179-7.063a1.766,1.766,0,0,1,2.658,0l6.18,7.063a1.765,1.765,0,0,1,.279,1.892Z" transform="translate(0 -47.202)" fill="#fff"/>
    <path id="Path_63729" data-name="Path 63729" d="M205.13,210a1.766,1.766,0,0,0-1.766,1.766v1.358q-.226.089-.449.186l-.96-.96a1.766,1.766,0,0,0-2.5,0l-4.61,4.61a1.766,1.766,0,0,0,0,2.5l.96.96q-.1.222-.186.449h-1.358a1.766,1.766,0,0,0-1.766,1.766v6.519a1.766,1.766,0,0,0,1.766,1.766h1.358q.089.226.186.449l-.96.96a1.766,1.766,0,0,0,0,2.5l4.61,4.61a1.766,1.766,0,0,0,2.5,0l.96-.96q.222.1.449.186v1.358a1.766,1.766,0,0,0,1.766,1.766h6.519a1.766,1.766,0,0,0,1.766-1.766v-1.358q.226-.089.449-.186l.96.96a1.766,1.766,0,0,0,2.5,0l4.61-4.61a1.766,1.766,0,0,0,0-2.5l-.96-.96q.1-.222.186-.449h1.358a1.766,1.766,0,0,0,1.766-1.766v-6.519a1.766,1.766,0,0,0-1.766-1.766h-1.358q-.089-.226-.186-.449l.96-.96a1.766,1.766,0,0,0,0-2.5l-4.61-4.61a1.766,1.766,0,0,0-2.5,0l-.96.96q-.222-.1-.449-.186v-1.358A1.766,1.766,0,0,0,211.65,210Zm10.322,15.891a7.063,7.063,0,1,1-7.063-7.063A7.063,7.063,0,0,1,215.453,225.891Z" transform="translate(-0.004 -157.343)" fill="#fff" fill-rule="evenodd"/>
  </g>
</svg>
