<svg xmlns="http://www.w3.org/2000/svg" width="40.326" height="40.178" viewBox="0 0 40.326 40.178">
  <g id="_02" data-name="02" transform="translate(-2.5 -2.5)">
    <path id="Path_63730" data-name="Path 63730" d="M9.756,10.772a8.272,8.272,0,1,1,8.272,8.272A8.272,8.272,0,0,1,9.756,10.772ZM24.42,36.249a3.929,3.929,0,0,1-1.055-4.095,3.975,3.975,0,0,1,3.267-2.75l2.585-.372s.414-.039.538-.29l.827-1.654a.685.685,0,0,0,.083-.393.654.654,0,0,0-.165-.31,10.927,10.927,0,0,0-8.355-3.205H13.874c-8.4,0-11.374,6.142-11.374,11.415,0,4.715,2.5,7.2,7.238,7.2h15.7c.331,0,.542-.248.641-.786l.414-2.378a.575.575,0,0,0-.186-.558Zm18.13-2.235a.9.9,0,0,0-.511-1.541l-4.119-.585a.918.918,0,0,1-.693-.494l-1.787-3.54a.995.995,0,0,0-1.768,0l-1.785,3.54a.92.92,0,0,1-.693.494l-4.119.585a.9.9,0,0,0-.511,1.541l2.978,2.841a.893.893,0,0,1,.267.8l-.68,3.886a.98.98,0,0,0,1.429,1.019l3.571-1.836a.933.933,0,0,1,.856,0l3.573,1.838a.98.98,0,0,0,1.427-1.02l-.676-3.89a.9.9,0,0,1,.265-.8Z" fill="#fff"/>
  </g>
</svg>
