<svg id="_03" data-name="03" xmlns="http://www.w3.org/2000/svg" width="44.652" height="44.652" viewBox="0 0 44.652 44.652">
  <g id="clipboard-tick">
    <path id="Vector" d="M12.261,0H3.516A3.51,3.51,0,0,0,0,3.5V5.247a3.494,3.494,0,0,0,3.5,3.5h8.763a3.494,3.494,0,0,0,3.5-3.5V3.5A3.482,3.482,0,0,0,12.261,0Z" transform="translate(14.438 3.721)" fill="#fff"/>
    <path id="Vector-2" data-name="Vector" d="M25.954,1.372a5.391,5.391,0,0,1-5.377,5.377H11.833A5.391,5.391,0,0,1,6.456,1.372,1.389,1.389,0,0,0,4.409.163,8.32,8.32,0,0,0,0,7.512V25.019a8.337,8.337,0,0,0,8.316,8.316H24.094a8.337,8.337,0,0,0,8.316-8.316V7.512A8.32,8.32,0,0,0,28,.163,1.389,1.389,0,0,0,25.954,1.372ZM22.419,16.089l-7.442,7.442a1.392,1.392,0,0,1-1.972,0L10.214,20.74a1.395,1.395,0,0,1,1.972-1.972l1.8,1.8,6.456-6.456a1.395,1.395,0,1,1,1.972,1.972Z" transform="translate(6.121 7.596)" fill="#fff"/>
    <path id="Vector-3" data-name="Vector" d="M0,0H44.652V44.652H0Z" transform="translate(44.652 44.652) rotate(180)" fill="none" opacity="0"/>
  </g>
</svg>
