<svg id="_04" data-name="04" xmlns="http://www.w3.org/2000/svg" width="39.222" height="39.222" viewBox="0 0 39.222 39.222">
  <g id="mouse-circle">
    <path id="Vector" d="M0,0H39.222V39.222H0Z" fill="none" opacity="0"/>
    <path id="Vector-2" data-name="Vector" d="M12.992,7.882l-2.664.9a2.46,2.46,0,0,0-1.569,1.569l-.9,2.664a2.478,2.478,0,0,1-4.723-.049L.114,3.241A2.483,2.483,0,0,1,3.219.119l9.74,3.023A2.494,2.494,0,0,1,12.992,7.882Z" transform="translate(21.262 21.273)" fill="#fff"/>
    <path id="Vector-3" data-name="Vector" d="M31.056,15.531a17.749,17.749,0,0,1-.131,2.092.8.8,0,0,1-1.046.637l-7.926-2.468a4.933,4.933,0,0,0-6.177,6.194l2.451,7.893a.812.812,0,0,1-.654,1.046,17.144,17.144,0,0,1-2.043.131A15.526,15.526,0,0,1,.005,15.089,15.705,15.705,0,0,1,15.089.005,15.526,15.526,0,0,1,31.056,15.531Z" transform="translate(3.263 3.263)" fill="#fff"/>
  </g>
</svg>
