<svg xmlns="http://www.w3.org/2000/svg" width="363" height="360.443" viewBox="0 0 363 360.443">
  <g id="contact" transform="translate(-604 -997.787)">
    <path id="Path_63759" data-name="Path 63759" d="M257.682,40.071v98.183a33.054,33.054,0,0,1-33.054,33.054H206.557v41.654a9.38,9.38,0,0,1-15.795,6.843l-51.744-48.5H68.465a33.054,33.054,0,0,1-33.054-33.054V40.071A33.054,33.054,0,0,1,68.465,7.017H224.629A33.054,33.054,0,0,1,257.682,40.071Z" transform="translate(698.159 1001.936)" fill="#1472ba" opacity="0.33"/>
    <path id="Path_63760" data-name="Path 63760" d="M205.626,241.951a20.567,20.567,0,0,1-14.029-5.536l-48.535-45.5H76.918a44.255,44.255,0,0,1-44.212-44.2v-98.2A44.257,44.257,0,0,1,76.918,4.31H233.086a44.259,44.259,0,0,1,44.208,44.216v98.2a44.255,44.255,0,0,1-44.212,44.2h-6.913v30.508A20.538,20.538,0,0,1,205.626,241.951ZM76.918,26.626a21.924,21.924,0,0,0-21.9,21.9v98.2a21.9,21.9,0,0,0,21.9,21.879h70.558a11.251,11.251,0,0,1,7.631,3.007l48.749,45.721v-37.57A11.154,11.154,0,0,1,215.015,168.6h18.072a21.9,21.9,0,0,0,21.9-21.879v-98.2a21.924,21.924,0,0,0-21.9-21.9Z" transform="translate(689.706 993.477)" fill="#333743"/>
    <path id="Path_63761" data-name="Path 63761" d="M228.972,78.5v89.484a32.955,32.955,0,0,1-33.037,33.025h-70.5L73.65,249.657a9.432,9.432,0,0,1-15.844-6.918V201.011H39.73A32.951,32.951,0,0,1,6.705,167.986V69.8A32.959,32.959,0,0,1,39.73,36.77H125.2v8.481a32.951,32.951,0,0,0,33.025,33.025h70.517Z" transform="translate(608.453 1094.914)" fill="#85c44b"/>
    <path id="Path_63762" data-name="Path 63762" d="M75.664,319.946a20.57,20.57,0,0,1-8.232-1.72A20.3,20.3,0,0,1,55.1,299.375V268.8H48.183A44.244,44.244,0,0,1,4,224.605V126.43a44.244,44.244,0,0,1,44.183-44.2h85.47a11.154,11.154,0,0,1,11.158,11.158v8.477a21.9,21.9,0,0,0,21.867,21.879h70.517a11.194,11.194,0,0,1,7.693,3.073,11.908,11.908,0,0,1,3.692,8.3v89.479a44.249,44.249,0,0,1-44.2,44.2H138.3l-48.555,45.61A20.708,20.708,0,0,1,75.664,319.946Zm-27.481-215.4A21.891,21.891,0,0,0,26.316,126.43V224.6A21.9,21.9,0,0,0,48.183,246.48H66.259a11.154,11.154,0,0,1,11.158,11.158v37.723l48.824-45.849a11.187,11.187,0,0,1,7.64-3.028h70.509a21.9,21.9,0,0,0,21.879-21.879v-78.54h-59.59a44.247,44.247,0,0,1-44.1-41.514Z" transform="translate(600 1038.283)" fill="#333743"/>
    <path id="Path_63763" data-name="Path 63763" d="M49.293,177.6a11.261,11.261,0,0,1-8.031-3.358,11.734,11.734,0,0,1-2.232-3.572,9.641,9.641,0,0,1-.9-4.228,9.07,9.07,0,0,1,.9-4.249,9.812,9.812,0,0,1,2.232-3.572,10,10,0,0,1,3.791-2.442,11.22,11.22,0,0,1,8.481,0,7.868,7.868,0,0,1,3.568,2.442,8.024,8.024,0,0,1,2.459,3.572,9.178,9.178,0,0,1,.887,4.249,10.774,10.774,0,0,1-3.345,7.8,10.4,10.4,0,0,1-7.809,3.358Zm44.633,0a10.89,10.89,0,0,1-8.031-3.358,11.13,11.13,0,0,1-3.127-7.8,10.815,10.815,0,0,1,3.127-7.825,10,10,0,0,1,3.791-2.442,11.22,11.22,0,0,1,8.481,0,7.868,7.868,0,0,1,3.568,2.442,8.024,8.024,0,0,1,2.459,3.572,9.178,9.178,0,0,1,.887,4.249,9.688,9.688,0,0,1-.887,4.228,9.182,9.182,0,0,1-2.459,3.572A10.4,10.4,0,0,1,93.926,177.6Zm44.628,0a13.321,13.321,0,0,1-4.241-.9,8.085,8.085,0,0,1-3.568-2.463,9.256,9.256,0,0,1-2.458-3.572,9.641,9.641,0,0,1-.9-4.228,9.07,9.07,0,0,1,.9-4.249,7.969,7.969,0,0,1,2.458-3.572,7.879,7.879,0,0,1,3.568-2.442,11.22,11.22,0,0,1,8.481,0,7.868,7.868,0,0,1,3.568,2.442,8.024,8.024,0,0,1,2.459,3.572,9.178,9.178,0,0,1,.887,4.249,9.688,9.688,0,0,1-.887,4.228,9.181,9.181,0,0,1-2.459,3.572A10.4,10.4,0,0,1,138.554,177.6ZM49.268,43.669H26.952a11.158,11.158,0,0,1,0-22.316H49.268a11.158,11.158,0,1,1,0,22.316ZM272.418,244.5H250.1a11.158,11.158,0,1,1,0-22.316h22.316a11.158,11.158,0,1,1,0,22.316Z" transform="translate(636.856 1046.736)" fill="#333743" opacity="0.2"/>
    <path id="Path_63762-2" data-name="Path 63762" d="M289.339,40.964H200.078a11.158,11.158,0,1,1,0-22.316h89.261a11.158,11.158,0,1,1,0,22.316Zm0,44.628H200.078a11.158,11.158,0,1,1,0-22.316h89.261a11.158,11.158,0,1,1,0,22.316Z" transform="translate(603.871 1035)" fill="#1472ba" opacity="0.43"/>
  </g>
</svg>
