<svg id="email" xmlns="http://www.w3.org/2000/svg" width="24" height="24" viewBox="0 0 24 24">
  <g id="vuesax_linear_sms-notification" data-name="vuesax/linear/sms-notification">
    <g id="sms-notification">
      <path id="Vector" d="M20,7v5c0,3.5-2,5-5,5H5c-3,0-5-1.5-5-5V5C0,1.5,2,0,5,0h7" transform="translate(2 3.5)" fill="none" stroke="#fff" stroke-linecap="round" stroke-linejoin="round" stroke-width="1.5"/>
      <path id="Vector-2" data-name="Vector" d="M0,0,3.13,2.5a3.166,3.166,0,0,0,3.75,0l1.18-.94" transform="translate(7 9)" fill="none" stroke="#fff" stroke-linecap="round" stroke-linejoin="round" stroke-width="1.5"/>
      <path id="Vector-3" data-name="Vector" d="M5,2.5A2.5,2.5,0,1,1,2.5,0,2.5,2.5,0,0,1,5,2.5Z" transform="translate(17 3)" fill="none" stroke="#fff" stroke-linecap="round" stroke-linejoin="round" stroke-width="1.5"/>
      <path id="Vector-4" data-name="Vector" d="M0,0H24V24H0Z" fill="none" opacity="0"/>
    </g>
  </g>
</svg>
