<svg xmlns="http://www.w3.org/2000/svg" width="49.139" height="54.863" viewBox="0 0 49.139 54.863">
  <g id="_01" data-name="01" transform="translate(0.75 0.75)">
    <path id="Path_63715" data-name="Path 63715" d="M161.126,84.672V81.387a7.232,7.232,0,0,1,7.215-7.215H182V77.3H168.34a4.1,4.1,0,0,0-4.086,4.086c0,1.1.009,2.21,0,3.31a7.229,7.229,0,0,1-7.214,7.11h-3.322a7.232,7.232,0,0,1-7.215-7.215v-8.6A12.189,12.189,0,0,1,134.365,63.83V49.868h5.473V44.339h-.485v-5.9h4.372v5.9h-.485v5.529h9.84V44.339H152.6v-5.9h4.372v5.9h-.485v5.529h5.473V63.83a12.181,12.181,0,0,1-12.324,12.158v8.6a4.1,4.1,0,0,0,4.086,4.086h3.322a4.1,4.1,0,0,0,4.086-4.007ZM155.4,40.008H154.16v2.767H155.4Zm-13.243,0h-1.244v2.767h1.244ZM158.829,53H137.494V63.829a9.061,9.061,0,0,0,9.03,9.031H149.8a9.061,9.061,0,0,0,9.031-9.031V53Z" transform="translate(-134.365 -38.444)" fill="#85c44b" stroke="#85c44b" stroke-width="1.5"/>
  </g>
</svg>
