<svg id="_02" data-name="02" xmlns="http://www.w3.org/2000/svg" width="49.8" height="49.801" viewBox="0 0 49.8 49.801">
  <path id="Path_63716" data-name="Path 63716" d="M193.2,166.774A6.224,6.224,0,0,0,199.425,173h7.115a6.224,6.224,0,0,0,6.225-6.225v-7.114a6.229,6.229,0,0,0-.364-2.081l15.171-15.18a6.215,6.215,0,0,0,2.09.364h7.114A6.224,6.224,0,0,0,243,136.537v-7.114a6.224,6.224,0,0,0-6.225-6.225h-7.114a6.224,6.224,0,0,0-6.225,6.225v7.114a6.229,6.229,0,0,0,.364,2.081L208.62,153.8a6.23,6.23,0,0,0-2.081-.364h-7.115a6.224,6.224,0,0,0-6.225,6.225Zm35.572-37.35a.889.889,0,0,1,.89-.889h7.115a.889.889,0,0,1,.889.889v7.114a.889.889,0,0,1-.889.89h-7.115a.89.89,0,0,1-.89-.89Zm-30.236,30.236a.889.889,0,0,1,.889-.89h7.114a.89.89,0,0,1,.89.89v7.114a.89.89,0,0,1-.89.889h-7.114a.889.889,0,0,1-.889-.889Z" transform="translate(-193.2 -123.198)" fill="#85c44b"/>
  <path id="Path_63717" data-name="Path 63717" d="M382.806,308.36a4.448,4.448,0,0,1-4.446,4.446H366.8v5.336H378.36a9.783,9.783,0,0,0,9.782-9.782V296.8h-5.335Z" transform="translate(-339.231 -269.231)" fill="#85c44b"/>
  <path id="Path_63718" data-name="Path 63718" d="M198.8,138.584v11.561h5.336V138.584a4.448,4.448,0,0,1,4.446-4.446h11.561V128.8H208.582a9.783,9.783,0,0,0-9.782,9.782Z" transform="translate(-197.911 -127.912)" fill="#85c44b"/>
</svg>
