<svg xmlns="http://www.w3.org/2000/svg" width="38.328" height="52.153" viewBox="0 0 38.328 52.153">
  <g id="_03" data-name="03" transform="translate(0.75 0.75)">
    <path id="Path_63719" data-name="Path 63719" d="M177.982,15.3a4.058,4.058,0,0,0-5.946,0c-4.562,4.914-15.2,17.722-15.437,30.506a18.394,18.394,0,0,0,5.346,13.307,18.2,18.2,0,0,0,13.065,5.544,18.436,18.436,0,0,0,18.414-18.415c0-12.918-10.8-25.941-15.442-30.942ZM175.01,61.987a15.557,15.557,0,0,1-11.163-4.746,15.744,15.744,0,0,1-4.582-11.389c.22-11.864,10.371-24.051,14.725-28.741a1.392,1.392,0,0,1,2.039,0c4.429,4.77,14.729,17.155,14.729,29.128a15.767,15.767,0,0,1-15.748,15.749Z" transform="translate(-156.596 -14)" fill="#85c44b" stroke="#85c44b" stroke-width="1.5"/>
    <path id="Path_63720" data-name="Path 63720" d="M348.118,353.447a1.332,1.332,0,0,0-1.5,1.147,9.39,9.39,0,0,1-9.29,8.132,1.333,1.333,0,1,0,0,2.666,12.064,12.064,0,0,0,11.933-10.449,1.333,1.333,0,0,0-1.147-1.5Z" transform="translate(-319.918 -324.117)" fill="#85c44b" stroke="#85c44b" stroke-width="1.5"/>
  </g>
</svg>
