<svg xmlns="http://www.w3.org/2000/svg" width="46.713" height="57.471" viewBox="0 0 46.713 57.471">
  <g id="_04" data-name="04" transform="translate(0.5 0.596)">
    <path id="Path_63721" data-name="Path 63721" d="M164.466,139.038C164.476,136.961,164.466,142.807,164.466,139.038Zm22.857-36.922a8.791,8.791,0,1,0-17.582,0V133.2a10.4,10.4,0,0,0-1.758,5.836,10.549,10.549,0,0,0,21.1,0,10.406,10.406,0,0,0-1.758-5.836Zm-8.79,43.952a7.04,7.04,0,0,1-7.033-7.032,6.9,6.9,0,0,1,1.4-4.212,1.754,1.754,0,0,0,.358-1.063V102.116a5.274,5.274,0,1,1,10.549,0v31.647a1.75,1.75,0,0,0,.358,1.063,6.907,6.907,0,0,1,1.4,4.212,7.039,7.039,0,0,1-7.032,7.032Zm31.647-22.7a8.791,8.791,0,1,1-17.582,0c0-2.592,1.367-5.5,4.061-8.639h0a1.759,1.759,0,0,1,2.668,2.292,11.111,11.111,0,0,0-3.214,6.348,5.274,5.274,0,0,0,10.549,0c0-3.513-4.611-8.054-6.388-9.507a1.759,1.759,0,1,1,2.227-2.723c.785.643,7.677,6.448,7.677,12.229Zm-28.131,15.664a3.516,3.516,0,1,1-5.274-3.029v-7.52a1.758,1.758,0,1,1,3.516,0v7.52a3.5,3.5,0,0,1,1.758,3.029Z" transform="translate(-164.466 -93.326)" fill="#85c44b" stroke="#85c44b" stroke-width="1"/>
  </g>
</svg>
