<svg xmlns="http://www.w3.org/2000/svg" width="57.699" height="57.697" viewBox="0 0 57.699 57.697">
  <g id="_05" data-name="05" transform="translate(0.994 0.993)">
    <path id="Path_63722" data-name="Path 63722" d="M117.217,66.759l-.552,1.937h4.2l.323-1.088A24.6,24.6,0,0,1,137.6,51.2l1.088-.323v-4.2l-1.938.552A28.6,28.6,0,0,0,117.217,66.76Z" transform="translate(-116.665 -46.67)" fill="#85c44b" stroke="#85c44b" stroke-width="1.5"/>
    <path id="Path_63723" data-name="Path 63723" d="M416.317,67.608l.323,1.088h4.2l-.552-1.938a28.608,28.608,0,0,0-19.538-19.538l-1.938-.551v4.2l1.088.323a24.6,24.6,0,0,1,16.412,16.412Z" transform="translate(-365.133 -46.668)" fill="#85c44b" stroke="#85c44b" stroke-width="1.5"/>
    <path id="Path_63724" data-name="Path 63724" d="M121.192,329.9l-.323-1.088h-4.2l.552,1.937a28.6,28.6,0,0,0,19.538,19.538l1.938.553v-4.2l-1.088-.323A24.6,24.6,0,0,1,121.193,329.9Z" transform="translate(-116.666 -295.13)" fill="#85c44b" stroke="#85c44b" stroke-width="1.5"/>
    <path id="Path_63725" data-name="Path 63725" d="M416.315,329.9A24.6,24.6,0,0,1,399.9,346.317l-1.088.322v4.2l1.937-.552a28.609,28.609,0,0,0,19.539-19.538l.552-1.938h-4.2Z" transform="translate(-365.13 -295.132)" fill="#85c44b" stroke="#85c44b" stroke-width="1.5"/>
    <path id="Path_63726" data-name="Path 63726" d="M325.576,251.748a3.83,3.83,0,1,1-3.83-3.83,3.83,3.83,0,0,1,3.83,3.83" transform="translate(-293.89 -223.893)" fill="#85c44b" stroke="#85c44b" stroke-width="1.5"/>
  </g>
</svg>
