<svg id="_06" data-name="06" xmlns="http://www.w3.org/2000/svg" width="60.654" height="51.989" viewBox="0 0 60.654 51.989">
  <path id="Layer_1" data-name="Layer 1" d="M60.488,47.325H49.657V38.66H60.488a2.166,2.166,0,0,0,0-4.332H48.444a8.665,8.665,0,0,0-7.452-4.332H38.826V25.662a4.332,4.332,0,0,0,4.332-4.332V17a4.332,4.332,0,0,0-4.332-4.332H34.493V8.332h6.5a2.166,2.166,0,1,0,0-4.332H23.662a2.166,2.166,0,1,0,0,4.332h6.5v4.332H25.828A4.332,4.332,0,0,0,21.5,17V21.33a4.332,4.332,0,0,0,4.332,4.332v4.332H23.662a8.665,8.665,0,0,0-7.452,4.332H4.166a2.166,2.166,0,0,0,0,4.332H15v8.665H4.166a2.166,2.166,0,1,0,0,4.332H16.21a8.665,8.665,0,0,0,7.452,4.332h17.33a8.665,8.665,0,0,0,7.452-4.332H60.488a2.166,2.166,0,1,0,0-4.332ZM25.828,17h13V21.33h-13Zm4.332,8.665h4.332v4.332H30.161ZM40.992,51.657H23.662a4.332,4.332,0,0,1-4.332-4.332V38.66a4.332,4.332,0,0,1,4.332-4.332h17.33a4.332,4.332,0,0,1,4.332,4.332v8.665A4.332,4.332,0,0,1,40.992,51.657Z" transform="translate(-2 -4)" fill="#85c44b"/>
</svg>
